<svg width="43" height="43" viewBox="0 0 43 43" fill="none" xmlns="http://www.w3.org/2000/svg">
<path fill-rule="evenodd" clip-rule="evenodd" d="M14.2779 0.144792C16.9592 0.586976 19.4708 2.01318 21.4992 4.12595C23.5189 2.01828 26.0082 0.600404 28.6775 0.163484C31.9389 -0.37036 35.3169 0.588807 38.1868 3.26904C43.8599 8.56735 44.5091 17.4969 40.1777 23.7597C38.4676 26.2322 35.0968 29.9876 31.8175 33.4656C28.5124 36.971 25.2137 40.2848 23.5863 41.9042L23.5861 41.9044L23.558 41.9323C23.401 42.0886 23.2266 42.2623 23.0623 42.4013C22.8736 42.5609 22.6076 42.7558 22.2482 42.8761L22.2481 42.8761C21.7546 43.0413 21.2181 43.0415 20.7241 42.8761C20.3648 42.7558 20.0989 42.5611 19.91 42.4014C19.7451 42.2618 19.5701 42.0876 19.4126 41.9307L19.386 41.9042C17.7586 40.2848 14.4598 36.971 11.1547 33.4656C7.87548 29.9876 4.50457 26.2322 2.7945 23.7597C-1.54809 17.4806 -0.784201 8.61604 4.77036 3.28327C7.60594 0.560899 11.0007 -0.395659 14.2779 0.144792ZM22.1268 40.4592L22.5283 40.841L22.1459 40.4567C22.1395 40.4575 22.1331 40.4584 22.1268 40.4592Z" fill="#FF0000"/>
</svg>
